<?xml version="1.0" encoding="utf-8"?>
<!-- Generator: Adobe Illustrator 21.1.0, SVG Export Plug-In . SVG Version: 6.00 Build 0)  -->
<svg version="1.1" id="レイヤー_1" xmlns="http://www.w3.org/2000/svg" xmlns:xlink="http://www.w3.org/1999/xlink" x="0px"
	 y="0px" viewBox="0 0 400 400" style="enable-background:new 0 0 400 400;" xml:space="preserve">
<style type="text/css">
	.st0{fill:none;stroke:#FFFFFF;stroke-width:4;stroke-miterlimit:10;}
	.st1{fill:none;stroke:#FFFFFF;stroke-width:5;stroke-miterlimit:10;}
	.st2{fill:#FFFFFF;}
</style>
<path class="st0" d="M150,230c78,0,155,0,233,0"/>
<path class="st0" d="M17,230c26.6,0,53.2,0,80,0"/>
<polyline class="st1" points="96.1,230 101,214 104,249 120,182 127,268 141,222 145,236 151.5,230 "/>
<rect x="22" y="155" class="st2" width="14" height="3"/>
<rect x="152" y="153" class="st2" width="14" height="3"/>
<rect x="159" y="179" class="st2" width="14" height="3"/>
<polygon class="st2" points="181.1,221 181.1,187 170,187 170,184 181.1,184 181.1,167 176,167 176,164 181.1,164 181.1,147.8 
	163.3,147.8 163.3,217 174,217 174,220 163.3,220 163.3,238.2 223.7,238.2 223.7,221 "/>
<rect x="234" y="196" class="st2" width="14" height="3"/>
<rect x="291" y="211" class="st2" width="14" height="3"/>
<path class="st2" d="M290,191h7v-6.5h-16l-1.1,5.5c-2.1-2.6-4.6-4.6-7.4-6.1c-2.8-1.4-6.6-2.2-11.3-2.2c-4.6,0-8.9,1.2-12.9,3.7
	c-4,2.5-7.2,5.9-9.6,10.4c-2.4,4.5-3.6,9.6-3.6,15.5c0,2.7,0.2,5.2,0.6,7.6h6.3v3h-5.6c1.2,4.3,3.2,7.8,6.1,10.6
	c5,4.8,11.4,7.1,19.4,7.1c6.8,0,12.8-2.7,17.9-8.1v6.6H297V194h-7V191z M279.8,217.6c-2.7,5.4-7,8.1-13,8.1c-2.5,0-4.9-0.7-7.1-2
	c-2.2-1.3-3.9-3.1-5.2-5.5c-1.2-2.2-1.9-4.6-2-7.2H243v-3h9.7c0.4-3.1,1.7-5.8,3.8-8c2.7-2.8,5.9-4.2,9.6-4.2c3.3,0,6.1,0.8,8.5,2.3
	c2.4,1.6,4.1,3.6,5.1,6.3V217.6z"/>
<rect x="272" y="205" class="st2" width="14" height="3"/>
<rect x="305" y="182" class="st2" width="14" height="3"/>
<rect x="330" y="167" class="st2" width="14" height="3"/>
<path class="st2" d="M381,205h-3.5c-0.5-3.7-1.5-7.1-3.1-10c-2.3-4.3-5.4-7.5-9.3-9.8c-3.9-2.3-8.2-3.4-12.8-3.4
	c-4.3,0-8.3,0.6-11.8,1.8c-3.5,1.2-6.4,2.7-8.7,4.6V150H321v-3h10.8v-5.7h-17.1V153H311v3h3.7v30h7.3v3h-7.3v16h7.3v3h-7.3v30.2
	h17.2v-5.4c4.8,4.6,10.8,6.9,18.1,6.9c5,0,9.6-1.2,13.9-3.6c4.3-2.4,7.7-5.9,10.2-10.3c2.5-4.5,3.8-9.6,3.8-15.5
	c0-0.7,0-1.5-0.1-2.2h3.2V205z M358.5,217.8c-1.3,2.3-3.1,4.2-5.2,5.5c-2.2,1.3-4.5,2-7.1,2c-6.6,0-11.3-2.7-14.3-8.1V212h4.1v-3
	h-4.1v-5.1c1.1-2.6,2.9-4.7,5.4-6.3c2.5-1.6,5.5-2.3,8.8-2.3c3.7,0,6.8,1.2,9.5,3.7H353v3h5.2c1.5,2.3,2.2,5,2.2,8.1
	C360.4,212.9,359.8,215.4,358.5,217.8z"/>
<rect x="367" y="191" class="st2" width="14" height="3"/>
<polygon class="st2" points="102,168 110.8,147.8 89.7,147.8 70.3,198.8 49.6,147.8 28.3,147.8 54.5,208 66,208 66,211 55.8,211 
	69.5,242.4 100.7,171 96,171 96,168 "/>
<rect x="93" y="175" class="st2" width="14" height="3"/>
</svg>
